<mxfile host="app.diagrams.net" modified="2023-04-10T19:49:49.498Z" agent="Mozilla/5.0 (Windows NT 10.0; Win64; x64) AppleWebKit/537.36 (KHTML, like Gecko) Chrome/110.0.0.0 Safari/537.36 OPR/96.0.0.0 (Edition std-1)" etag="ODbF9Zhs7Mt4tjNX0OvU" version="21.1.4" type="github">
  <diagram name="Página-1" id="zR6mjoAYWJswRlD_wYGe">
    <mxGraphModel dx="1153" dy="586" grid="1" gridSize="10" guides="1" tooltips="1" connect="1" arrows="1" fold="1" page="1" pageScale="1" pageWidth="827" pageHeight="1169" math="0" shadow="0">
      <root>
        <mxCell id="0" />
        <mxCell id="1" parent="0" />
        <mxCell id="lu-fnkLCQ8AVbo4WwS-q-5" style="edgeStyle=orthogonalEdgeStyle;rounded=0;orthogonalLoop=1;jettySize=auto;html=1;exitX=1;exitY=0.5;exitDx=0;exitDy=0;entryX=0;entryY=0.5;entryDx=0;entryDy=0;" parent="1" source="lu-fnkLCQ8AVbo4WwS-q-1" target="lu-fnkLCQ8AVbo4WwS-q-3" edge="1">
          <mxGeometry relative="1" as="geometry" />
        </mxCell>
        <mxCell id="lu-fnkLCQ8AVbo4WwS-q-1" value="Departamentos" style="rounded=0;whiteSpace=wrap;html=1;" parent="1" vertex="1">
          <mxGeometry y="80" width="120" height="60" as="geometry" />
        </mxCell>
        <mxCell id="lu-fnkLCQ8AVbo4WwS-q-2" value="Lotação" style="rhombus;whiteSpace=wrap;html=1;" parent="1" vertex="1">
          <mxGeometry x="320" y="70" width="80" height="80" as="geometry" />
        </mxCell>
        <mxCell id="lu-fnkLCQ8AVbo4WwS-q-3" value="Funcionários" style="rounded=0;whiteSpace=wrap;html=1;" parent="1" vertex="1">
          <mxGeometry x="600" y="80" width="140" height="60" as="geometry" />
        </mxCell>
        <mxCell id="lu-fnkLCQ8AVbo4WwS-q-6" value="Departamentos" style="swimlane;fontStyle=0;childLayout=stackLayout;horizontal=1;startSize=30;horizontalStack=0;resizeParent=1;resizeParentMax=0;resizeLast=0;collapsible=1;marginBottom=0;whiteSpace=wrap;html=1;" parent="1" vertex="1">
          <mxGeometry y="185" width="140" height="210" as="geometry" />
        </mxCell>
        <mxCell id="lu-fnkLCQ8AVbo4WwS-q-7" value="Dep_id(PK):Int" style="text;strokeColor=none;fillColor=none;align=left;verticalAlign=middle;spacingLeft=4;spacingRight=4;overflow=hidden;points=[[0,0.5],[1,0.5]];portConstraint=eastwest;rotatable=0;whiteSpace=wrap;html=1;" parent="lu-fnkLCQ8AVbo4WwS-q-6" vertex="1">
          <mxGeometry y="30" width="140" height="50" as="geometry" />
        </mxCell>
        <mxCell id="lu-fnkLCQ8AVbo4WwS-q-8" value="Dep_Nome:&amp;nbsp;&lt;br&gt;Int" style="text;strokeColor=none;fillColor=none;align=left;verticalAlign=middle;spacingLeft=4;spacingRight=4;overflow=hidden;points=[[0,0.5],[1,0.5]];portConstraint=eastwest;rotatable=0;whiteSpace=wrap;html=1;" parent="lu-fnkLCQ8AVbo4WwS-q-6" vertex="1">
          <mxGeometry y="80" width="140" height="40" as="geometry" />
        </mxCell>
        <mxCell id="lu-fnkLCQ8AVbo4WwS-q-9" value="Dep_Chef: IDFK" style="text;strokeColor=none;fillColor=none;align=left;verticalAlign=middle;spacingLeft=4;spacingRight=4;overflow=hidden;points=[[0,0.5],[1,0.5]];portConstraint=eastwest;rotatable=0;whiteSpace=wrap;html=1;" parent="lu-fnkLCQ8AVbo4WwS-q-6" vertex="1">
          <mxGeometry y="120" width="140" height="40" as="geometry" />
        </mxCell>
        <mxCell id="lu-fnkLCQ8AVbo4WwS-q-49" value="Dep_Tele:&lt;br&gt;String" style="text;strokeColor=none;fillColor=none;align=left;verticalAlign=middle;spacingLeft=4;spacingRight=4;overflow=hidden;points=[[0,0.5],[1,0.5]];portConstraint=eastwest;rotatable=0;whiteSpace=wrap;html=1;" parent="lu-fnkLCQ8AVbo4WwS-q-6" vertex="1">
          <mxGeometry y="160" width="140" height="50" as="geometry" />
        </mxCell>
        <mxCell id="lu-fnkLCQ8AVbo4WwS-q-10" value="Funcionários" style="swimlane;fontStyle=0;childLayout=stackLayout;horizontal=1;startSize=30;horizontalStack=0;resizeParent=1;resizeParentMax=0;resizeLast=0;collapsible=1;marginBottom=0;whiteSpace=wrap;html=1;" parent="1" vertex="1">
          <mxGeometry x="600" y="160" width="140" height="350" as="geometry" />
        </mxCell>
        <mxCell id="lu-fnkLCQ8AVbo4WwS-q-11" value="Fun_Cod:&amp;nbsp;&lt;br&gt;float" style="text;strokeColor=none;fillColor=none;align=left;verticalAlign=middle;spacingLeft=4;spacingRight=4;overflow=hidden;points=[[0,0.5],[1,0.5]];portConstraint=eastwest;rotatable=0;whiteSpace=wrap;html=1;" parent="lu-fnkLCQ8AVbo4WwS-q-10" vertex="1">
          <mxGeometry y="30" width="140" height="50" as="geometry" />
        </mxCell>
        <mxCell id="lu-fnkLCQ8AVbo4WwS-q-12" value="Fun_Nome:&amp;nbsp;&lt;br&gt;String" style="text;strokeColor=none;fillColor=none;align=left;verticalAlign=middle;spacingLeft=4;spacingRight=4;overflow=hidden;points=[[0,0.5],[1,0.5]];portConstraint=eastwest;rotatable=0;whiteSpace=wrap;html=1;" parent="lu-fnkLCQ8AVbo4WwS-q-10" vertex="1">
          <mxGeometry y="80" width="140" height="50" as="geometry" />
        </mxCell>
        <mxCell id="lu-fnkLCQ8AVbo4WwS-q-13" value="Fun_Fone:&lt;br&gt;String" style="text;strokeColor=none;fillColor=none;align=left;verticalAlign=middle;spacingLeft=4;spacingRight=4;overflow=hidden;points=[[0,0.5],[1,0.5]];portConstraint=eastwest;rotatable=0;whiteSpace=wrap;html=1;" parent="lu-fnkLCQ8AVbo4WwS-q-10" vertex="1">
          <mxGeometry y="130" width="140" height="40" as="geometry" />
        </mxCell>
        <mxCell id="lu-fnkLCQ8AVbo4WwS-q-35" value="ID Departamento&lt;br&gt;String" style="text;strokeColor=none;fillColor=none;align=left;verticalAlign=middle;spacingLeft=4;spacingRight=4;overflow=hidden;points=[[0,0.5],[1,0.5]];portConstraint=eastwest;rotatable=0;whiteSpace=wrap;html=1;" parent="lu-fnkLCQ8AVbo4WwS-q-10" vertex="1">
          <mxGeometry y="170" width="140" height="60" as="geometry" />
        </mxCell>
        <mxCell id="lu-fnkLCQ8AVbo4WwS-q-50" value="Fun_CPF&lt;br&gt;String" style="text;strokeColor=none;fillColor=none;align=left;verticalAlign=middle;spacingLeft=4;spacingRight=4;overflow=hidden;points=[[0,0.5],[1,0.5]];portConstraint=eastwest;rotatable=0;whiteSpace=wrap;html=1;" parent="lu-fnkLCQ8AVbo4WwS-q-10" vertex="1">
          <mxGeometry y="230" width="140" height="30" as="geometry" />
        </mxCell>
        <mxCell id="lu-fnkLCQ8AVbo4WwS-q-53" value="Fun_Salario&lt;br&gt;String" style="text;strokeColor=none;fillColor=none;align=left;verticalAlign=middle;spacingLeft=4;spacingRight=4;overflow=hidden;points=[[0,0.5],[1,0.5]];portConstraint=eastwest;rotatable=0;whiteSpace=wrap;html=1;" parent="lu-fnkLCQ8AVbo4WwS-q-10" vertex="1">
          <mxGeometry y="260" width="140" height="50" as="geometry" />
        </mxCell>
        <mxCell id="lu-fnkLCQ8AVbo4WwS-q-54" value="Fun_Cargo&lt;br&gt;Int" style="text;strokeColor=none;fillColor=none;align=left;verticalAlign=middle;spacingLeft=4;spacingRight=4;overflow=hidden;points=[[0,0.5],[1,0.5]];portConstraint=eastwest;rotatable=0;whiteSpace=wrap;html=1;" parent="lu-fnkLCQ8AVbo4WwS-q-10" vertex="1">
          <mxGeometry y="310" width="140" height="40" as="geometry" />
        </mxCell>
      </root>
    </mxGraphModel>
  </diagram>
</mxfile>
